<svg version="1" xmlns="http://www.w3.org/2000/svg" width="341.333" height="341.333" viewBox="0 0 256.000000 256.000000"><path d="M172.5 28.5c-.8 6.5-3 9.5-9.1 13.1-2.4 1.4-4.4 2.8-4.4 3 0 .2 2.8 1.8 6.3 3.5 3.4 1.7 6.3 3.2 6.4 3.3.2.2 1 3.3 1.9 6.9.9 3.7 2 6.7 2.3 6.7.4 0 2.9-2.2 5.6-5l4.9-5 6.8.7c3.8.3 6.8.2 6.8-.3s-1.1-3.1-2.5-5.8c-3.1-6-3.1-8.3-.4-14.7 1.2-2.7 2-5.2 1.7-5.4-.2-.2-3.4 0-7.2.6l-6.8 1.1-4.8-4.1c-2.7-2.3-5.3-4.1-5.9-4.1-.5 0-1.3 2.5-1.6 5.5z"/><path d="M27 27.8c1.9.9 5.3 2.3 7.5 3.1 3.7 1.3 24.9 15.3 26.1 17.3 1.2 1.9-.5 1.8-5.6-.2-7.5-2.9-9.7-2.1-3.7 1.4 4.8 2.8 6 4.6 3.1 4.6-1.3 0-1.5.7-.9 4.2.8 4.7 8.8 19.3 11.1 20.2.8.3 1.4 1.2 1.4 2.1 0 1.2-.4 1.4-1.9.5-2.4-1.2-6.1-1.3-8-.1-1.1.7-1.2 1.9-.3 6.3.5 2.9.9 5.4.7 5.6-.1.2-1.9-.7-3.9-1.9-5-2.9-4.7-.6.6 4.8 2.3 2.3 4 4.5 3.7 4.7-.3.3-5-1.5-10.4-3.9-11-5-14.7-5.4-7.2-.9 16.2 9.6 15.6 9.2 15.2 13.2-.1 2-.3 3.8-.4 3.9-.1.2-2.2-.9-4.8-2.4C40.6 105.5 8.7 92 5.8 92c-1.4 0-.9 4.4.8 6.8 1.5 2.2 1.5 2.4-.2 3.7-1.8 1.3-1.8 1.4.1 3.5 1 1.1 1.9 3.3 2 4.7 0 2.2 1.2 3.2 8.8 7.2 5.4 2.9 12.2 7.6 17.8 12.6 5 4.4 9.6 8.3 10.2 8.7.9.5.9 1 0 1.9-.9.9-2 .6-4.6-1-5-3-6.8-2.5-2.8.8l3.4 2.8-2.1 3.5c-1.2 2-2.2 4.3-2.2 5.1 0 1.1-2.8 2.9-7.7 5.2-8.3 3.8-9.3 4.7-9.3 8.4 0 2.1.3 2.3 3.8 1.6 2-.3 7.5-2.2 12.2-4 5.4-2.2 8.8-3.1 9.4-2.5 2.1 2.1 10.1.1 14.1-3.6 1.5-1.4 2.8-2.4 2.9-2.2l3.4 6.8c5.9 12.2 18.2 24.6 31.2 31.4 6.3 3.4 20.1 7.6 24.6 7.6 1.7 0 2.3.7 2.6 2.7.5 4.1 5.2 6.2 16 7.5 5.1.6 10.3 1.5 11.6 2.1 1.6.8 2.6.7 3.4-.1.7-.7 2.2-1.2 3.4-1.2 1.7 0 2.7-1.1 4.1-4.2 1-2.4 3.2-6.9 4.8-10.2 3-5.8 3-5.8 10-7.7 12.5-3.4 14.1-3.5 15.5-.8 5.1 9.8 14.2 20.4 12.7 15-.5-1.9-.4-1.9 1.9-.4 4.6 3 3.5.5-2.5-6-5.8-6.1-9.9-13.2-8.6-14.5.4-.4 3.1 1.9 6.2 5.1 4.1 4.3 6 5.6 7.4 5.2 1.5-.5 5.2 2.6 16.2 13.7 7.9 7.9 16 16.3 18 18.7 2 2.5 3.9 4.2 4.1 4 .8-.8-12.3-19.6-14.8-21.3-1.4-.9-4.8-5-7.6-9.1-4.5-6.7-4.8-7.5-3.2-8.5 1.6-.9 1.6-1.1-.2-2.5-1.1-.8-2.8-1.5-3.7-1.5-2.7 0-7.3-4.4-8.7-8.5-.8-2-1.2-3.9-.9-4.2.3-.3 3.7 1.2 7.7 3.2 3.9 2.1 7.3 3.5 7.6 3.2.3-.2-1.1-3-3.1-6.1-5.4-8.5-5.4-9.5.1-4.9 5.6 4.6 9.4 6.8 9.4 5.4 0-1.3-7.2-10.2-10.6-13.1-2.6-2.2-2.9-3-2.6-7.3.4-4.7-.4-5.7-2.6-3.5-1 1-2.5-.1-7.2-4.7-3.3-3.2-5.8-6-5.7-6.1.1-.2 2.7.4 5.8 1.3 17.9 5 37.6-12 35.5-30.5-1.3-11.3-9.9-22.5-19.1-24.8-2.3-.6-2.6-1.1-2.1-3.3 1.4-5.9 1.8-10.1 1-10.1-.5 0-1.8.7-2.8 1.5-2.9 2.2-4.4 1.9-7.3-1.5-2.9-3.5-5.2-3.7-11-1l-4.3 1.9 2 4.6c2.5 5.9 2.5 6.4-.5 7.5-1.5.6-2.5 1.7-2.5 3 0 2.2-1 2.6-2.7.9-1.3-1.3-8.5.8-15 4.5l-4.2 2.5-1-3.4c-2.4-8.8-12.8-21.7-22.8-28.1-9.8-6.4-7.9-7.4 2.6-1.4 6.9 3.9 10.1 4.9 10.1 3.1 0-.5-1.5-1.8-3.4-2.8-2.7-1.4-16.8-10.6-18.5-11.9-.2-.2.2-1 .9-1.9.7-.9 1.1-1.6.9-1.8-.2-.1-2.6-1.4-5.4-2.8-2.7-1.4-9.5-5.3-15-8.7-10.8-6.7-19.7-9.4-23.9-7.3-1.2.5-3.2 1.1-4.5 1.3-2.2.3-1.8.7 3.1 3.9 3.3 2.1 7.6 3.9 10.2 4.3 4 .6 4.6 1 4.6 3.2 0 1.3-.2 2.4-.4 2.4s-4.7-1.6-10-3.5S92.4 38 91.8 38c-2.3 0 3.4 4.8 8.7 7.4 3 1.5 5.5 2.9 5.5 3.1 0 .6-2.4-.3-11-4-4.1-1.8-8.8-3.8-10.3-4.4-1.5-.6-2.5-1.6-2.2-2.1.4-.6 1.1-.8 1.6-.5.5.4 1.6.2 2.4-.3 1.2-.6.1-1.3-4.2-2.6-3.2-1-9.3-3.3-13.6-5.2-4.3-1.9-8.6-3.4-9.7-3.4-3.6 0-2.9 1.7 1.6 4 3.5 1.8 4.2 2.6 3 3.2-1.3.7-.8 1.5 2.5 4.5 2.2 2 3.8 3.7 3.6 4-.5.4-16.7-3.4-20.3-4.7-1.3-.5-2.4-1.6-2.4-2.5 0-3.1-12.5-8.5-19.5-8.5l-4 .1 3.5 1.7zm162.6 71.7c-2.3 3.5-4.5 12.6-3.9 16.1l.5 2.9-3.7-3.6c-2.4-2.3-4-5.1-4.5-7.5-.5-2.2-1.1-5-1.4-6.4-.6-2.5-.6-2.5.5-.3 1.6 3 3.6 2.9 8.9-.6 5.6-3.6 5.6-3.6 3.6-.6zM61 149.9c.6 1.3.6 2.2.1 2.6-.9.5-3.1-2.4-3.1-3.9 0-1.4 2-.4 3 1.3zM227.4 32.1c-3.7 3.8-4.2 4-9.4 3.8-3-.2-5.5.1-5.5.7.1.5 1.1 3 2.4 5.5l2.3 4.5-2.1 4.2c-1.1 2.3-2.1 4.6-2.1 5.1 0 .6 2.4.8 6.3.5 6-.6 6.3-.5 9.1 2.5 1.7 1.7 3.5 3.1 4.2 3.1.6 0 1.5-2.1 1.9-4.8.7-5.1 2.5-7.6 6.7-9.8 3.8-2 3.5-3-1.3-5.4-4.1-2.1-6.9-6.6-6.9-10.9 0-3.4-1.5-3.1-5.6 1z"/><path d="M229 73.7c-4.1 1.4-5.5 7.7-2 8.8 2.4.7 8.9-2.2 10.4-4.7 2-3.4-3.2-6-8.4-4.1zM37 99.1c2.9 2.5 14 8.2 14.6 7.6.5-.5-5.8-4.4-12.6-7.6l-4.5-2.2 2.5 2.2zM64.6 172.5c-6 14.3-7.8 28.8-4 32.5 2.9 3 12.6 6 21.2 6.7l7.7.6 5.7-7.4 5.7-7.4-3.9-1.7c-9.1-3.9-21.9-14.7-28.7-24.3l-2.1-2.9-1.6 3.9z"/></svg>